<svg width="55" height="51" viewBox="0 0 55 51" fill="none" xmlns="http://www.w3.org/2000/svg">
<path d="M5.00927 0.234665L6.58907 2.94288L9.29729 4.29699L6.58907 5.87679L5.00927 8.58501L3.65516 5.87679L0.946945 4.29699L3.65516 2.94288L5.00927 0.234665Z" fill="#FFA500"/>
<path d="M50.1463 22.8032L51.7261 25.5114L54.4343 26.8655L51.7261 28.4453L50.1463 31.1535L48.7922 28.4453L46.0839 26.8655L48.7922 25.5114L50.1463 22.8032Z" fill="#FFA500"/>
<path d="M30.286 26.6398C30.286 18.2895 34.7997 11.0675 41.5702 7.00521C38.185 4.97404 34.3483 4.0713 30.286 4.0713C17.8733 4.0713 7.7175 14.2271 7.7175 26.6398C7.7175 39.0525 17.8733 49.2083 30.286 49.2083C34.3483 49.2083 38.185 48.0799 41.5702 46.2744C34.7997 42.4377 30.286 34.9901 30.286 26.6398Z" fill="#FFA500" stroke="#FFA500" stroke-width="2" stroke-linejoin="round"/>
</svg>
