<svg width="54" height="54" viewBox="0 0 54 54" fill="none" xmlns="http://www.w3.org/2000/svg">
<circle cx="27" cy="27" r="27" fill="#585676"/>
<path d="M18.7842 24.769C18.2077 24.769 17.6611 24.6605 17.1445 24.4434C16.6354 24.2188 16.1899 23.9155 15.8081 23.5337C14.9845 22.7101 14.5728 21.7031 14.5728 20.5127C14.5728 19.3298 14.9845 18.3265 15.8081 17.5029C16.6242 16.6868 17.6162 16.2788 18.7842 16.2788C19.9372 16.2788 20.9217 16.6868 21.7378 17.5029C22.5614 18.3265 22.9731 19.3298 22.9731 20.5127C22.9731 21.7031 22.5614 22.7101 21.7378 23.5337C20.9142 24.3573 19.9297 24.769 18.7842 24.769ZM18.7842 22.6128C19.0537 22.6128 19.3083 22.5604 19.5479 22.4556C19.7949 22.3507 20.012 22.2048 20.1992 22.0176C20.5885 21.6133 20.7832 21.1117 20.7832 20.5127C20.7832 19.9287 20.5885 19.4346 20.1992 19.0303C19.8099 18.6335 19.3382 18.4351 18.7842 18.4351C18.2152 18.4351 17.736 18.6335 17.3467 19.0303C16.9574 19.4346 16.7627 19.9287 16.7627 20.5127C16.7627 21.1117 16.9574 21.6133 17.3467 22.0176C17.736 22.4144 18.2152 22.6128 18.7842 22.6128ZM27.2412 18.5024C27.2412 18.3078 27.3011 18.1393 27.4209 17.9971C27.5482 17.8548 27.6979 17.7837 27.8701 17.7837H36.9893C37.1839 17.7837 37.3299 17.8473 37.4272 17.9746C37.5321 18.0944 37.5845 18.2441 37.5845 18.4238V19.6479C37.5845 19.8201 37.5321 19.9699 37.4272 20.0972C37.3299 20.217 37.1839 20.2769 36.9893 20.2769H30.0601V25.8584H35.6416C35.8363 25.8584 35.9823 25.922 36.0796 26.0493C36.1844 26.1766 36.2368 26.3263 36.2368 26.4985V27.7114C36.2368 27.8836 36.1844 28.0334 36.0796 28.1606C35.9823 28.2804 35.8363 28.3403 35.6416 28.3403H30.0488V34.2812C30.0488 34.4759 29.9852 34.6444 29.8579 34.7866C29.7381 34.9289 29.5921 35 29.4199 35H27.8589C27.6867 35 27.5407 34.9289 27.4209 34.7866C27.3011 34.6444 27.2412 34.4759 27.2412 34.2812V18.5024Z" fill="white"/>
</svg>
