<svg width="54" height="54" viewBox="0 0 54 54" fill="none" xmlns="http://www.w3.org/2000/svg">
<circle cx="27" cy="27" r="27" fill="white"/>
<path d="M18.7842 24.769C18.2077 24.769 17.6611 24.6605 17.1445 24.4434C16.6354 24.2188 16.1899 23.9155 15.8081 23.5337C14.9845 22.7101 14.5728 21.7031 14.5728 20.5127C14.5728 19.3298 14.9845 18.3265 15.8081 17.5029C16.6242 16.6868 17.6162 16.2788 18.7842 16.2788C19.9372 16.2788 20.9217 16.6868 21.7378 17.5029C22.5614 18.3265 22.9731 19.3298 22.9731 20.5127C22.9731 21.7031 22.5614 22.7101 21.7378 23.5337C20.9142 24.3573 19.9297 24.769 18.7842 24.769ZM18.7842 22.6128C19.0537 22.6128 19.3083 22.5604 19.5479 22.4556C19.7949 22.3507 20.012 22.2048 20.1992 22.0176C20.5885 21.6133 20.7832 21.1117 20.7832 20.5127C20.7832 19.9287 20.5885 19.4346 20.1992 19.0303C19.8099 18.6335 19.3382 18.4351 18.7842 18.4351C18.2152 18.4351 17.736 18.6335 17.3467 19.0303C16.9574 19.4346 16.7627 19.9287 16.7627 20.5127C16.7627 21.1117 16.9574 21.6133 17.3467 22.0176C17.736 22.4144 18.2152 22.6128 18.7842 22.6128ZM39.3477 21.4336C39.3477 22.362 38.9359 22.8262 38.1123 22.8262H37.3374C37.0978 22.8262 36.9106 22.7401 36.7759 22.5679C36.6486 22.3882 36.5737 22.1449 36.5513 21.8379C36.5363 21.5234 36.4427 21.2389 36.2705 20.9844C36.0983 20.7223 35.8774 20.5127 35.6079 20.3555C35.1063 20.0635 34.4399 19.9175 33.6089 19.9175C32.7778 19.9175 32.0553 20.0934 31.4414 20.4453C30.8275 20.7897 30.3333 21.2539 29.959 21.8379C29.2402 22.931 28.8809 24.391 28.8809 26.2178C28.8809 29.5046 29.9515 31.571 32.0928 32.417C32.7516 32.6715 33.3955 32.7988 34.0244 32.7988C35.1624 32.7988 36.1657 32.5929 37.0342 32.1812L37.6631 31.8892C37.8652 31.7993 38.0449 31.7544 38.2021 31.7544C38.3594 31.7544 38.4867 31.7918 38.584 31.8667C38.6813 31.9416 38.8011 32.1213 38.9434 32.4058C39.0931 32.6828 39.168 32.9261 39.168 33.1357C39.168 33.3379 39.0968 33.54 38.9546 33.7422C38.8123 33.9368 38.6364 34.109 38.4268 34.2588C38.0599 34.4984 37.6182 34.6968 37.1016 34.854C36.1582 35.1385 35.0539 35.2808 33.7886 35.2808C32.5308 35.2808 31.404 35.0524 30.4082 34.5957C29.4199 34.139 28.5889 33.5063 27.915 32.6978C26.5299 31.0506 25.8374 28.8906 25.8374 26.2178C25.8374 23.5824 26.5374 21.4785 27.9375 19.9062C29.3675 18.2891 31.3366 17.4805 33.8447 17.4805C35.2223 17.4805 36.4427 17.7874 37.5059 18.4014C38.7337 19.1051 39.3477 20.1159 39.3477 21.4336Z" fill="black"/>
</svg>
