<svg width="74" height="65" viewBox="0 0 74 65" fill="none" xmlns="http://www.w3.org/2000/svg">
<path d="M52.1595 20.1616C52.1595 13.9327 47.1493 9.05787 41.0558 9.05787C39.7017 9.05787 38.483 9.32869 37.2643 9.73493C36.8581 5.13095 33.0665 1.33945 28.3272 1.33945C23.317 1.33945 19.2546 5.40178 19.2546 10.412C19.2546 11.4953 19.5254 12.5786 19.7963 13.5264C19.39 13.391 18.8484 13.391 18.4422 13.391C13.432 13.391 9.36963 17.4533 9.36963 22.4636C9.36963 27.3383 13.2965 31.4007 18.1713 31.5361H41.462C47.4201 30.859 52.1595 26.1197 52.1595 20.1616Z" fill="#91C0F8" stroke="white" stroke-width="0.72" stroke-linejoin="round"/>
<path d="M72.6517 45.348C72.6517 34.9665 64.3014 26.8418 54.1455 26.8418C51.8887 26.8418 49.8575 27.2932 47.8264 27.9703C47.1493 20.297 40.8301 13.9778 32.9312 13.9778C24.5808 13.9778 17.8103 20.7483 17.8103 29.0987C17.8103 30.9042 18.2616 32.7096 18.713 34.2894C18.0359 34.0638 17.1332 34.0638 16.4562 34.0638C8.10581 34.0638 1.33527 40.8343 1.33527 49.1846C1.33527 57.3093 7.88013 64.0798 16.0048 64.3055H54.8226C64.7527 63.1771 72.6517 55.2781 72.6517 45.348Z" fill="#57A0EE" stroke="white" stroke-width="1.2" stroke-linejoin="round"/>
</svg>
