<svg width="93" height="86" viewBox="0 0 93 86" fill="none" xmlns="http://www.w3.org/2000/svg">
<path d="M33.9863 58.4766V66.6013" stroke="#FFA500" stroke-width="2.4" stroke-linecap="round"/>
<path d="M16.7513 51.3376L11.0063 57.0826" stroke="#FFA500" stroke-width="2.4" stroke-linecap="round"/>
<path d="M9.61234 34.1026H1.48768" stroke="#FFA500" stroke-width="2.4" stroke-linecap="round"/>
<path d="M16.7513 16.8676L11.0063 11.1226" stroke="#FFA500" stroke-width="2.4" stroke-linecap="round"/>
<path d="M33.9863 9.72867V1.60401" stroke="#FFA500" stroke-width="2.4" stroke-linecap="round"/>
<path d="M51.2213 16.8676L56.9663 11.1226" stroke="#FFA500" stroke-width="2.4" stroke-linecap="round"/>
<path d="M58.3603 34.1026H66.4849" stroke="#FFA500" stroke-width="2.4" stroke-linecap="round"/>
<path d="M51.2213 51.3376L56.9663 57.0826" stroke="#FFA500" stroke-width="2.4" stroke-linecap="round"/>
<path d="M33.9863 47.6437C41.4648 47.6437 47.5274 41.5812 47.5274 34.1026C47.5274 26.6241 41.4648 20.5615 33.9863 20.5615C26.5077 20.5615 20.4452 26.6241 20.4452 34.1026C20.4452 41.5812 26.5077 47.6437 33.9863 47.6437Z" fill="#FFA500" stroke="#FFA500" stroke-width="2.4"/>
<path d="M91.6375 54.6174C91.6375 45.7931 84.5397 38.8872 75.9073 38.8872C73.989 38.8872 72.2625 39.2708 70.536 39.8463C69.9605 33.324 64.5892 27.9527 57.8751 27.9527C50.7773 27.9527 45.0223 33.7077 45.0223 40.8055C45.0223 42.3401 45.406 43.8748 45.7896 45.2176C45.2141 45.0258 44.4468 45.0258 43.8713 45.0258C36.7735 45.0258 31.0186 50.7808 31.0186 57.8785C31.0186 64.7845 36.5817 70.5395 43.4876 70.7313H76.4828C84.9234 69.7721 91.6375 63.058 91.6375 54.6174Z" fill="#57A0EE" stroke="white" stroke-width="1.275" stroke-linejoin="round"/>
<path d="M49.7842 73.5975V84.8818" stroke="#57A0EE" stroke-width="1.2" stroke-linecap="round"/>
<path d="M53.7738 75.25L45.7947 83.2292" stroke="#57A0EE" stroke-linecap="round"/>
<path d="M55.4264 79.2396H44.1421" stroke="#57A0EE" stroke-linecap="round"/>
<path d="M53.7738 83.2292L45.7947 75.2501" stroke="#57A0EE" stroke-linecap="round"/>
<path d="M70.0959 73.5975V84.8818" stroke="#57A0EE" stroke-width="1.2" stroke-linecap="round"/>
<path d="M74.0855 75.25L66.1063 83.2292" stroke="#57A0EE" stroke-linecap="round"/>
<path d="M75.738 79.2396H64.4538" stroke="#57A0EE" stroke-linecap="round"/>
<path d="M74.0855 83.2292L66.1063 75.2501" stroke="#57A0EE" stroke-linecap="round"/>
</svg>
