<svg width="92" height="68" viewBox="0 0 92 68" fill="none" xmlns="http://www.w3.org/2000/svg">
<path d="M28.8493 48.9897V55.7603" stroke="#FFA500" stroke-width="2" stroke-linecap="round"/>
<path d="M14.4868 43.0406L9.69929 47.8281" stroke="#FFA500" stroke-width="2" stroke-linecap="round"/>
<path d="M8.53763 28.6781H1.76708" stroke="#FFA500" stroke-width="2" stroke-linecap="round"/>
<path d="M14.4868 14.3156L9.69929 9.52808" stroke="#FFA500" stroke-width="2" stroke-linecap="round"/>
<path d="M28.8493 8.36642V1.59588" stroke="#FFA500" stroke-width="2" stroke-linecap="round"/>
<path d="M43.2118 14.3156L47.9993 9.52808" stroke="#FFA500" stroke-width="2" stroke-linecap="round"/>
<path d="M49.1609 28.6781H55.9315" stroke="#FFA500" stroke-width="2" stroke-linecap="round"/>
<path d="M43.2118 43.0406L47.9993 47.8281" stroke="#FFA500" stroke-width="2" stroke-linecap="round"/>
<path d="M28.8493 39.9623C35.0814 39.9623 40.1335 34.9102 40.1335 28.6781C40.1335 22.446 35.0814 17.3938 28.8493 17.3938C22.6172 17.3938 17.565 22.446 17.565 28.6781C17.565 34.9102 22.6172 39.9623 28.8493 39.9623Z" fill="#FFA500" stroke="#FFA500" stroke-width="2"/>
<path d="M91.364 47.6356C91.364 37.2541 83.0137 29.1295 72.8578 29.1295C70.601 29.1295 68.5698 29.5808 66.5387 30.2579C65.8616 22.5846 59.5424 16.2654 51.6435 16.2654C43.2931 16.2654 36.5226 23.036 36.5226 31.3863C36.5226 33.1918 36.9739 34.9973 37.4253 36.5771C36.7483 36.3514 35.8455 36.3514 35.1685 36.3514C26.8181 36.3514 20.0476 43.1219 20.0476 51.4723C20.0476 59.5969 26.5924 66.3675 34.7171 66.5931H73.5349C83.465 65.4647 91.364 57.5658 91.364 47.6356Z" fill="#91C0F8" stroke="white" stroke-width="1.2" stroke-linejoin="round"/>
</svg>
