<svg width="74" height="81" viewBox="0 0 74 81" fill="none" xmlns="http://www.w3.org/2000/svg">
<path d="M72.7887 32.0602C72.7887 21.6787 64.4383 13.554 54.2825 13.554C52.0257 13.554 49.9945 14.0054 47.9633 14.6824C47.2863 7.00915 40.9671 0.689972 33.0681 0.689972C24.7178 0.689972 17.9472 7.46052 17.9472 15.8109C17.9472 17.6163 18.3986 19.4218 18.85 21.0016C18.1729 20.7759 17.2702 20.7759 16.5931 20.7759C8.24278 20.7759 1.47224 27.5465 1.47224 35.8968C1.47224 44.0215 8.0171 50.792 16.1418 51.0177H54.9596C64.8897 49.8893 72.7887 41.9903 72.7887 32.0602Z" fill="#57A0EE" stroke="white" stroke-width="1.2" stroke-linejoin="round"/>
<path d="M23.5946 58.5027L20.4594 76.2832" stroke="#91C0F8" stroke-width="3" stroke-linecap="round" stroke-dasharray="0.1 7"/>
<path d="M35.4912 56.0171L32.356 73.7976" stroke="#91C0F8" stroke-width="3" stroke-linecap="round" stroke-dasharray="0.1 7"/>
<path d="M46.2121 60.1991L43.0769 77.9796" stroke="#91C0F8" stroke-width="3" stroke-linecap="round" stroke-dasharray="0.1 7"/>
</svg>
