<svg width="74" height="68" viewBox="0 0 74 68" fill="none" xmlns="http://www.w3.org/2000/svg">
<path d="M72.7887 32.7726C72.7887 22.3911 64.4383 14.2664 54.2825 14.2664C52.0257 14.2664 49.9945 14.7178 47.9633 15.3948C47.2863 7.72155 40.9671 1.40237 33.0681 1.40237C24.7178 1.40237 17.9472 8.17292 17.9472 16.5233C17.9472 18.3287 18.3986 20.1342 18.85 21.714C18.1729 21.4883 17.2702 21.4883 16.5931 21.4883C8.24278 21.4883 1.47224 28.2589 1.47224 36.6092C1.47224 44.7339 8.0171 51.5044 16.1418 51.7301H54.9596C64.8897 50.6017 72.7887 42.7027 72.7887 32.7726Z" fill="#57A0EE" stroke="white" stroke-width="1.2" stroke-linejoin="round"/>
<path d="M17.0445 55.5668V66.851" stroke="#57A0EE" stroke-width="1.2" stroke-linecap="round"/>
<path d="M21.0341 57.2193L13.0549 65.1985" stroke="#57A0EE" stroke-linecap="round"/>
<path d="M22.6866 61.2089H11.4024" stroke="#57A0EE" stroke-linecap="round"/>
<path d="M21.0341 65.1985L13.0549 57.2193" stroke="#57A0EE" stroke-linecap="round"/>
<path d="M35.0993 55.5668V66.851" stroke="#57A0EE" stroke-width="1.2" stroke-linecap="round"/>
<path d="M39.0889 57.2193L31.1097 65.1985" stroke="#57A0EE" stroke-linecap="round"/>
<path d="M40.7414 61.2089H29.4572" stroke="#57A0EE" stroke-linecap="round"/>
<path d="M39.0889 65.1985L31.1097 57.2193" stroke="#57A0EE" stroke-linecap="round"/>
<path d="M55.4109 55.5668V66.851" stroke="#57A0EE" stroke-width="1.2" stroke-linecap="round"/>
<path d="M59.4005 57.2193L51.4214 65.1985" stroke="#57A0EE" stroke-linecap="round"/>
<path d="M61.0531 61.2089H49.7688" stroke="#57A0EE" stroke-linecap="round"/>
<path d="M59.4005 65.1985L51.4214 57.2193" stroke="#57A0EE" stroke-linecap="round"/>
</svg>
